<?xml version="1.0" standalone="no"?>
<!DOCTYPE svg PUBLIC "-//W3C//DTD SVG 20010904//EN"
 "http://www.w3.org/TR/2001/REC-SVG-20010904/DTD/svg10.dtd">
<svg version="1.0" xmlns="http://www.w3.org/2000/svg"
 width="512.000000pt" height="512.000000pt" viewBox="0 0 512.000000 512.000000"
 preserveAspectRatio="xMidYMid meet">
<metadata>
Created by potrace 1.11, written by Peter Selinger 2001-2013
</metadata>
<g transform="translate(0.000000,512.000000) scale(0.100000,-0.100000)"
fill="#000000" stroke="none">
<path d="M2335 5114 c-455 -35 -731 -99 -1010 -234 -170 -82 -265 -148 -381
-264 -109 -109 -154 -179 -154 -242 0 -29 42 -275 64 -375 2 -9 -22 -47 -52
-85 -139 -172 -292 -449 -371 -672 -141 -393 -201 -760 -201 -1222 0 -437 53
-820 176 -1266 l36 -132 62 -26 c121 -50 198 -76 335 -110 209 -53 337 -69
574 -72 l207 -2 103 -67 c210 -137 528 -274 711 -306 105 -18 251 -6 377 30
209 60 452 178 639 312 l84 61 111 -18 c84 -15 162 -19 330 -19 193 0 233 3
322 23 142 32 212 56 329 113 76 37 103 55 107 72 2 12 21 85 41 162 83 322
119 628 119 1015 1 298 -12 469 -54 715 -89 531 -296 1037 -561 1376 l-28 37
41 213 c43 225 45 268 13 334 -26 57 -215 243 -309 304 -264 173 -615 286
-1030 331 -103 11 -542 21 -630 14z m419 -394 c512 -29 911 -156 1128 -361
l46 -44 -68 -350 c-37 -192 -82 -427 -100 -521 l-32 -171 -52 -16 c-234 -73
-758 -115 -1291 -103 -465 10 -761 42 -946 102 l-47 15 -32 172 c-18 95 -63
330 -100 522 l-68 350 46 44 c212 200 624 334 1106 360 206 12 214 12 410 1z
m-824 -1940 c74 -6 275 -13 445 -17 298 -6 312 -7 364 -30 160 -70 440 -136
696 -165 156 -17 578 -14 750 5 76 9 141 14 143 12 8 -8 -100 -135 -161 -190
-53 -47 -144 -101 -198 -118 -13 -4 -17 -31 -22 -159 -25 -583 -194 -989 -546
-1309 -103 -93 -254 -205 -348 -260 -101 -57 -278 -127 -389 -152 -83 -19
-102 -20 -161 -10 -104 18 -215 58 -358 128 -155 76 -232 132 -384 280 -209
203 -338 388 -446 640 -71 166 -101 284 -141 562 -4 28 -10 34 -47 43 -74 19
-156 52 -204 82 -55 34 -123 97 -123 113 0 6 36 16 79 23 171 27 366 103 519
202 99 64 239 192 309 283 35 45 49 56 66 52 12 -3 83 -9 157 -15z"/>
<path d="M2360 4335 l0 -195 -200 0 -200 0 0 -200 0 -200 200 0 200 0 0 -200
0 -200 200 0 200 0 0 200 0 200 200 0 200 0 0 200 0 200 -200 0 -200 0 0 195
0 195 -200 0 -200 0 0 -195z"/>
<path d="M1798 2146 c-158 -44 -244 -199 -199 -361 45 -167 262 -251 416 -161
196 116 182 414 -25 505 -61 27 -135 33 -192 17z"/>
<path d="M3187 2150 c-214 -54 -294 -306 -148 -473 90 -102 265 -120 377 -38
176 130 148 404 -51 492 -51 22 -129 31 -178 19z"/>
</g>
</svg>
